<svg xmlns="http://www.w3.org/2000/svg" width="390" height="510" version="1.0"><defs><filter id="a" width="200%" height="200%" x="-50%" y="-50%"><feGaussianBlur in="SourceGraphic" stdDeviation="12"/></filter></defs><g stroke="null" filter="url(#a)" opacity="0.45"><path stroke-width=".1" d="M188.159 40.3c-5.2 10.3-6.2 13.1-6.2 17.4 0 9.5 6.2 14.7 15.3 13 5-.9 8-5.3 8.5-12.6.4-5.1 0-6.3-4.3-14.5-2.6-5-5.3-10.5-5.9-12.3l-1.2-3.3-6.2 12.3zM135.959 49.1c-1.2.7-1 1.3 1.3 3 1.4 1.1 5.3 5.8 8.6 10.3 10.1 14 13.2 15.5 21 10.4 10.4-6.9 5.7-18.7-9.5-23.3-5.3-1.6-19.1-1.9-21.4-.4zM233.259 49.1c-8.7 1.8-16.6 7.5-18 12.9-1.3 5.1 6.6 14.1 12.3 14.1 3.1 0 7.6-4 13.9-12.5 2.9-4 6.8-8.6 8.6-10.3 1.8-1.7 3-3.4 2.7-3.7-1.1-1.1-15.1-1.4-19.5-.5zM121.259 79.1c-5.4 1.1-14.4 5-13.8 6 .3.4 2.4 1.8 4.7 3 2.4 1.2 7 4.4 10.3 7 6.5 5.2 11.5 8 14 8 3.4 0 7.4-3.1 9.4-7.3 2.9-5.9 2.6-8.4-1.2-12.2-5-5-12.8-6.5-23.4-4.5zM247.359 81c-7.4 3.4-9.4 9.3-5.3 16.1 2.8 4.8 4.7 6 9 6 3 0 5.5-1.4 13.7-7.4 5.6-4 11.3-7.7 12.7-8 3.9-1 3-2.5-3.2-5.4-7.9-3.5-20.8-4.2-26.9-1.3z"/><path stroke-width=".1" d="M158.959 84.1c0 .5 1.3 2.2 2.9 3.8 3.4 3.3 4.9 7.7 3.4 10.1-1.2 1.9-9.7 7.5-23 15.1-40.1 22.9-61.9 44.8-70.9 71-1.4 4.2-1.9 8.3-1.9 17 .1 10.1.4 12.2 2.7 17.6 12.1 28.5 45.8 49.4 92.8 57.3 14 2.4 14 2.3 18.9 12.6 3.1 6.4 6.6 18.5 7.7 26.6.4 2.7 1 4.9 1.4 4.9.4 0 1.1-2.9 1.5-6.4 1.4-13.6 11-35.1 16-36 1.1-.2 5.9-.9 10.8-1.5 16.9-2.2 40.4-9.5 53.4-16.7 27.2-15.1 43.4-36.8 43.3-58.2 0-7.4-2.7-18-6.5-26.1-10.9-23-31.1-41.1-73.3-66-6.8-4-13.2-8.1-14.3-9.2-3-3-2.4-7 1.8-11.9l3.7-4.3-3.9.7c-6.7 1.1-17.9 7.2-22.4 12.1-2.2 2.4-4.1 4.9-4.1 5.5 0 .5 1.2 1.2 2.8 1.6 33.2 7.1 48.2 14.3 63.3 30.2 14.3 15 19.9 28.6 20.7 49.7.3 10.9.1 14.5-1.7 21.9-7.9 33.3-31.7 58.3-64.3 67.7-9.2 2.6-31.8 3.7-42.8 2-18.7-2.9-34.9-11.1-48.5-24.6-10.2-10-15.4-17.4-20.2-28.5-5.8-13.4-6.8-18.9-6.8-36 0-13.6.3-16.4 2.3-22.5 7.5-22.3 21.3-37.6 43.7-48.6 9.6-4.7 30.3-10.9 36.3-10.9 1.5 0 3.3-.4 4.1-.9 3-1.9-7.3-12-15.9-15.8-5.2-2.3-13-4.2-13-3.3z"/><path stroke-width=".1" d="M179.359 121.1c-15 2.7-28.7 10.1-40 21.5-13.1 13.2-19.5 28.3-19.6 46.5 0 11.7 2 20.7 7.4 31.9 3.3 7 5.6 10.1 13.2 17.6 15.2 15.2 30.8 21.7 52.6 21.8 14.2.1 22.3-1.7 34.7-7.9 19.3-9.5 33-26.8 37.7-47.2 8.2-36.3-13.5-71.6-50.6-82.3-8.3-2.4-27.1-3.4-35.4-1.9zm25.3 6.5c14.5 4.3 27.5 17.3 34.1 34.1 9.9 25.1 4.7 58.2-12 76.8-22 24.6-53.8 21.3-72.3-7.4-8.8-13.7-12.1-26.9-11.2-45.1.8-18.5 7.1-34.1 18.4-45.5 12.3-12.4 28.4-17.2 43-12.9z"/><path stroke-width=".1" d="M63.059 260.1c-22.2 6-38.4 20.5-42 37.8-2.7 12.9-.2 27.6 7.1 42.2 6.4 12.8 13 19.1 39.7 37.9 48.5 34.1 72.8 55.5 95.8 84.1 9.2 11.5 15.5 20.5 22 32 3.5 6 4.3 6.9 4.3 4.8 0-6.3-9.9-29.1-20-45.8l-6.3-10.5 1.2-5.4c2.4-12 10.4-24.1 18.4-28 15.1-7.3 30.4 4.1 36.4 27.3l1.7 6.4-3.9 5.8c-4.7 7.1-14.5 25.8-17.6 33.4-3.2 8-6.9 20.1-6 19.5.5-.2 3.1-4.5 6-9.4 10.6-18.4 33.8-46.6 50.7-61.7 18.5-16.5 36-30.1 60.9-47.4 26.9-18.6 31.3-22 36.4-27.7 9-10.1 15.3-24.3 17.3-39.2.9-7.4.9-9.8-.6-16.3-3.2-14.5-12.4-25.6-27.1-32.9-17.1-8.4-37.6-10.4-55.1-5.3-23.7 6.8-43.1 18.6-64.4 39.1-10.3 9.8-18.6 19.1-17.8 19.8.2.2 3.3-1.6 6.8-4.1 8.2-5.7 30.8-18.8 42.5-24.6 16-8 30.4-11.8 44.6-11.8 11.8 0 18.1 2.2 24.6 8.6 5.9 5.9 7.7 10.5 7.7 20.4-.1 18.2-9.1 35.1-26 48.7-12.3 9.8-29.4 25.8-41.1 38.3-9.7 10.5-23.2 26.2-26.5 31-1.7 2.4-1.8 2.5-2.9.5-3.2-5.3-14.7-15.8-20.3-18.5-12.4-6.1-22.3-6-34.7.2-6.5 3.3-15.8 11.7-18.5 16.9-.8 1.7-1.9 2.7-2.3 2.3-.5-.5-6.5-7.7-13.4-15.9-15.6-18.6-36.5-39.9-52-52.9-13.5-11.2-18.6-17.2-23.3-27.1-11.9-24.9-6.6-46.2 12.9-52 9.8-2.9 25.7-1.5 41.7 3.6 10.8 3.5 41.5 20.2 57.9 31.6 3.5 2.4 6.6 4.2 6.8 3.9 1.4-1.4-20.8-23.9-33.2-33.8-12.8-10.2-28.8-18.9-43.8-24-8.1-2.7-10.8-3.1-23.2-3.4-11.7-.3-15.2-.1-21.4 1.6z"/><path stroke-width=".1" d="M191.959 355.6c0 .9-2.1 6.2-4.7 11.8-4.4 9.2-4.8 10.9-4.8 17.5 0 6.8.2 7.6 2.8 9.8 4.8 4.1 14.3 2.9 16.6-2.3 2.4-5.3 1.3-12.8-3.4-23.7-2.5-5.7-4.5-11.1-4.5-11.9 0-.9-.4-1.9-1-2.2-.5-.3-1 .1-1 1z"/></g><g fill="#fa7bd5"><path d="M169.2 14.2C164 24.5 163 27.3 163 31.6c0 9.5 6.2 14.7 15.3 13 5-.9 8-5.3 8.5-12.6.4-5.1 0-6.3-4.3-14.5-2.6-5-5.3-10.5-5.9-12.3l-1.2-3.3-6.2 12.3zM117 23c-1.2.7-1 1.3 1.3 3 1.4 1.1 5.3 5.8 8.6 10.3 10.1 14 13.2 15.5 21 10.4 10.4-6.9 5.7-18.7-9.5-23.3-5.3-1.6-19.1-1.9-21.4-.4zM214.3 23c-8.7 1.8-16.6 7.5-18 12.9C195 41 202.9 50 208.6 50c3.1 0 7.6-4 13.9-12.5 2.9-4 6.8-8.6 8.6-10.3 1.8-1.7 3-3.4 2.7-3.7-1.1-1.1-15.1-1.4-19.5-.5zM102.3 53c-5.4 1.1-14.4 5-13.8 6 .3.4 2.4 1.8 4.7 3 2.4 1.2 7 4.4 10.3 7 6.5 5.2 11.5 8 14 8 3.4 0 7.4-3.1 9.4-7.3 2.9-5.9 2.6-8.4-1.2-12.2-5-5-12.8-6.5-23.4-4.5zM228.4 54.9c-7.4 3.4-9.4 9.3-5.3 16.1 2.8 4.8 4.7 6 9 6 3 0 5.5-1.4 13.7-7.4 5.6-4 11.3-7.7 12.7-8 3.9-1 3-2.5-3.2-5.4-7.9-3.5-20.8-4.2-26.9-1.3z"/><path d="M140 58c0 .5 1.3 2.2 2.9 3.8 3.4 3.3 4.9 7.7 3.4 10.1-1.2 1.9-9.7 7.5-23 15.1-40.1 22.9-61.9 44.8-70.9 71-1.4 4.2-1.9 8.3-1.9 17 .1 10.1.4 12.2 2.7 17.6C65.3 221.1 99 242 146 249.9c14 2.4 14 2.3 18.9 12.6 3.1 6.4 6.6 18.5 7.7 26.6.4 2.7 1 4.9 1.4 4.9.4 0 1.1-2.9 1.5-6.4 1.4-13.6 11-35.1 16-36 1.1-.2 5.9-.9 10.8-1.5 16.9-2.2 40.4-9.5 53.4-16.7 27.2-15.1 43.4-36.8 43.3-58.2 0-7.4-2.7-18-6.5-26.1-10.9-23-31.1-41.1-73.3-66-6.8-4-13.2-8.1-14.3-9.2-3-3-2.4-7 1.8-11.9l3.7-4.3-3.9.7c-6.7 1.1-17.9 7.2-22.4 12.1-2.2 2.4-4.1 4.9-4.1 5.5 0 .5 1.2 1.2 2.8 1.6 33.2 7.1 48.2 14.3 63.3 30.2 14.3 15 19.9 28.6 20.7 49.7.3 10.9.1 14.5-1.7 21.9-7.9 33.3-31.7 58.3-64.3 67.7-9.2 2.6-31.8 3.7-42.8 2-18.7-2.9-34.9-11.1-48.5-24.6-10.2-10-15.4-17.4-20.2-28.5-5.8-13.4-6.8-18.9-6.8-36 0-13.6.3-16.4 2.3-22.5 7.5-22.3 21.3-37.6 43.7-48.6 9.6-4.7 30.3-10.9 36.3-10.9 1.5 0 3.3-.4 4.1-.9 3-1.9-7.3-12-15.9-15.8-5.2-2.3-13-4.2-13-3.3z"/><path d="M160.4 95c-15 2.7-28.7 10.1-40 21.5-13.1 13.2-19.5 28.3-19.6 46.5 0 11.7 2 20.7 7.4 31.9 3.3 7 5.6 10.1 13.2 17.6 15.2 15.2 30.8 21.7 52.6 21.8 14.2.1 22.3-1.7 34.7-7.9 19.3-9.5 33-26.8 37.7-47.2 8.2-36.3-13.5-71.6-50.6-82.3-8.3-2.4-27.1-3.4-35.4-1.9zm25.3 6.5c14.5 4.3 27.5 17.3 34.1 34.1 9.9 25.1 4.7 58.2-12 76.8-22 24.6-53.8 21.3-72.3-7.4-8.8-13.7-12.1-26.9-11.2-45.1.8-18.5 7.1-34.1 18.4-45.5 12.3-12.4 28.4-17.2 43-12.9z"/><path d="M44.1 234c-22.2 6-38.4 20.5-42 37.8-2.7 12.9-.2 27.6 7.1 42.2 6.4 12.8 13 19.1 39.7 37.9 48.5 34.1 72.8 55.5 95.8 84.1 9.2 11.5 15.5 20.5 22 32 3.5 6 4.3 6.9 4.3 4.8 0-6.3-9.9-29.1-20-45.8l-6.3-10.5 1.2-5.4c2.4-12 10.4-24.1 18.4-28 15.1-7.3 30.4 4.1 36.4 27.3l1.7 6.4-3.9 5.8c-4.7 7.1-14.5 25.8-17.6 33.4-3.2 8-6.9 20.1-6 19.5.5-.2 3.1-4.5 6-9.4 10.6-18.4 33.8-46.6 50.7-61.7 18.5-16.5 36-30.1 60.9-47.4 26.9-18.6 31.3-22 36.4-27.7 9-10.1 15.3-24.3 17.3-39.2.9-7.4.9-9.8-.6-16.3-3.2-14.5-12.4-25.6-27.1-32.9-17.1-8.4-37.6-10.4-55.1-5.3-23.7 6.8-43.1 18.6-64.4 39.1-10.3 9.8-18.6 19.1-17.8 19.8.2.2 3.3-1.6 6.8-4.1 8.2-5.7 30.8-18.8 42.5-24.6 16-8 30.4-11.8 44.6-11.8 11.8 0 18.1 2.2 24.6 8.6 5.9 5.9 7.7 10.5 7.7 20.4-.1 18.2-9.1 35.1-26 48.7-12.3 9.8-29.4 25.8-41.1 38.3-9.7 10.5-23.2 26.2-26.5 31-1.7 2.4-1.8 2.5-2.9.5-3.2-5.3-14.7-15.8-20.3-18.5-12.4-6.1-22.3-6-34.7.2-6.5 3.3-15.8 11.7-18.5 16.9-.8 1.7-1.9 2.7-2.3 2.3-.5-.5-6.5-7.7-13.4-15.9-15.6-18.6-36.5-39.9-52-52.9-13.5-11.2-18.6-17.2-23.3-27.1-11.9-24.9-6.6-46.2 12.9-52 9.8-2.9 25.7-1.5 41.7 3.6 10.8 3.5 41.5 20.2 57.9 31.6 3.5 2.4 6.6 4.2 6.8 3.9 1.4-1.4-20.8-23.9-33.2-33.8-12.8-10.2-28.8-18.9-43.8-24-8.1-2.7-10.8-3.1-23.2-3.4-11.7-.3-15.2-.1-21.4 1.6z"/><path d="M173 329.5c0 .9-2.1 6.2-4.7 11.8-4.4 9.2-4.8 10.9-4.8 17.5 0 6.8.2 7.6 2.8 9.8 4.8 4.1 14.3 2.9 16.6-2.3 2.4-5.3 1.3-12.8-3.4-23.7-2.5-5.7-4.5-11.1-4.5-11.9 0-.9-.4-1.9-1-2.2-.5-.3-1 .1-1 1z"/></g></svg>